<?xml version="1.0" standalone="no"?>
<!DOCTYPE svg PUBLIC "-//W3C//DTD SVG 20010904//EN"
 "http://www.w3.org/TR/2001/REC-SVG-20010904/DTD/svg10.dtd">
<svg version="1.0" xmlns="http://www.w3.org/2000/svg"
 width="256.000000pt" height="48.000000pt" viewBox="0 0 256.000000 48.000000"
 preserveAspectRatio="xMidYMid meet">

<g transform="translate(0.000000,48.000000) scale(0.100000,-0.100000)"
fill="#000000" stroke="none">
<path d="M631 408 c12 -29 25 -63 30 -75 14 -36 24 -27 52 45 30 75 31 82 17
82 -5 0 -17 -22 -27 -50 -10 -27 -21 -50 -25 -50 -4 0 -15 23 -25 50 -10 28
-23 50 -30 50 -9 0 -7 -15 8 -52z"/>
<path d="M773 446 c23 -18 25 -116 2 -116 -8 0 -15 -4 -15 -10 0 -5 18 -10 40
-10 22 0 40 5 40 10 0 6 -7 10 -15 10 -12 0 -15 13 -15 55 0 42 3 55 15 55 8
0 15 5 15 10 0 6 -19 10 -42 10 -38 -1 -41 -2 -25 -14z"/>
<path d="M880 385 c0 -43 4 -75 10 -75 6 0 10 17 10 37 l0 38 31 -38 c34 -42
72 -49 89 -17 17 31 64 27 80 -7 7 -16 15 -23 17 -15 6 16 -47 152 -59 152 -5
0 -16 -16 -24 -35 -49 -120 -42 -110 -65 -89 -40 36 -42 51 -13 89 20 27 23
35 11 35 -8 0 -26 -17 -39 -37 l-23 -38 -3 38 c-6 67 -22 39 -22 -38z m193 5
c4 -15 0 -20 -14 -20 -20 0 -23 8 -13 34 7 20 20 13 27 -14z"/>
<path d="M1150 446 c-23 -28 -8 -60 33 -69 21 -5 37 -15 37 -23 0 -21 -29 -29
-51 -16 -30 19 -44 14 -24 -8 36 -40 100 -18 93 32 -2 17 -12 25 -40 32 -39
10 -50 32 -22 43 9 3 25 1 36 -6 25 -15 35 -7 18 14 -16 19 -64 20 -80 1z"/>
<path d="M1330 446 c-22 -28 -8 -58 33 -70 41 -12 48 -25 23 -41 -11 -7 -22
-6 -37 3 -25 16 -37 8 -19 -13 18 -21 64 -19 86 6 23 26 11 48 -36 64 -19 6
-36 17 -38 23 -6 18 28 27 50 13 25 -15 35 -7 18 14 -16 19 -64 20 -80 1z"/>
<path d="M1450 385 l0 -75 50 0 c28 0 50 5 50 10 0 6 -16 10 -35 10 -31 0 -35
3 -35 25 0 21 5 25 30 25 17 0 30 5 30 10 0 6 -13 10 -30 10 -23 0 -30 4 -30
20 0 15 7 20 29 20 17 0 33 5 36 10 4 6 -13 10 -44 10 l-51 0 0 -75z"/>
<path d="M1560 458 c0 -11 53 -134 61 -142 8 -9 45 62 64 123 13 42 -16 18
-34 -28 -10 -23 -21 -42 -26 -42 -5 0 -16 19 -26 42 -9 24 -21 45 -28 47 -6 2
-11 2 -11 0z"/>
<path d="M1065 240 c4 -6 11 -8 16 -4 6 3 17 -2 25 -12 14 -18 14 -18 4 4 -6
12 -20 22 -31 22 -11 0 -17 -5 -14 -10z"/>
<path d="M947 189 c7 -7 15 -10 18 -7 3 3 -2 9 -12 12 -14 6 -15 5 -6 -5z"/>
<path d="M992 185 c3 -5 -7 -41 -22 -80 -27 -67 -30 -92 -9 -80 5 4 9 13 9 21
0 23 59 18 81 -9 10 -12 18 -16 19 -10 0 23 -51 142 -68 155 -9 7 -13 9 -10 3z
m32 -97 c-7 -10 -34 -10 -34 0 0 4 3 18 7 31 l6 23 13 -23 c7 -13 10 -27 8
-31z"/>
<path d="M677 173 c-8 -7 -10 -137 -2 -144 2 -3 26 -3 52 1 l48 5 0 59 c1 37
-4 64 -13 72 -14 14 -73 19 -85 7z m71 -35 c3 -14 -3 -18 -26 -18 -29 0 -31 4
-23 38 3 12 46 -6 49 -20z m12 -68 c0 -16 -7 -20 -35 -20 -28 0 -35 4 -35 20
0 16 7 20 35 20 28 0 35 -4 35 -20z"/>
<path d="M810 106 c0 -41 5 -78 10 -81 6 -4 10 8 10 29 0 34 2 36 35 36 33 0
35 -2 35 -36 0 -21 4 -33 10 -29 6 3 10 40 10 81 0 43 -4 74 -10 74 -5 0 -10
-13 -10 -30 0 -28 -3 -30 -35 -30 -32 0 -35 2 -35 30 0 17 -4 30 -10 30 -6 0
-10 -31 -10 -74z"/>
<path d="M1094 166 c-3 -7 -4 -42 -2 -77 3 -72 23 -84 23 -14 0 25 2 45 5 45
3 0 20 -23 38 -51 42 -64 54 -55 50 37 -3 79 -21 93 -26 20 l-3 -49 -35 52
c-37 55 -42 58 -50 37z"/>
<path d="M1240 108 c0 -41 2 -77 5 -80 11 -11 99 10 112 28 37 51 2 113 -70
121 l-47 6 0 -75z m74 42 c30 -11 42 -49 26 -79 -8 -15 -20 -21 -45 -21 l-35
0 0 48 c0 64 6 71 54 52z"/>
<path d="M1429 153 c-6 -16 -19 -49 -29 -76 -11 -28 -14 -49 -8 -53 5 -3 12 3
15 15 8 30 68 30 83 0 7 -11 14 -18 17 -15 8 7 -49 156 -60 156 -4 0 -12 -12
-18 -27z m31 -32 c0 -5 3 -16 6 -25 4 -12 0 -16 -15 -16 -22 0 -25 8 -15 34 7
17 24 22 24 7z"/>
<path d="M1540 99 c0 -51 4 -78 10 -74 6 3 10 35 10 71 0 56 2 64 19 64 28 0
47 -26 31 -45 -7 -8 -19 -15 -26 -15 -21 0 -17 -12 17 -49 34 -38 49 -36 24 3
-16 23 -16 27 -1 41 35 36 5 85 -52 85 l-32 0 0 -81z"/>
</g>
</svg>
